<?xml version="1.0" encoding="UTF-8"?> <!-- Generator: Adobe Illustrator 24.3.0, SVG Export Plug-In . SVG Version: 6.00 Build 0) --> <svg xmlns="http://www.w3.org/2000/svg" xmlns:xlink="http://www.w3.org/1999/xlink" version="1.1" id="Layer_1" x="0px" y="0px" viewBox="0 0 280 111" style="enable-background:new 0 0 280 111;" xml:space="preserve"> <style type="text/css"> .st0{fill:#228696;} .st1{fill-rule:evenodd;clip-rule:evenodd;fill:#228696;} .st2{fill:#A4A3A9;} </style> <g> <g> <path class="st0" d="M218,36.8c0-3,1.1-5.5,3.2-7.6c2.1-2.1,4.7-3.2,7.6-3.2v6.5c0,3-1.1,5.5-3.2,7.6c-2.1,2.1-4.7,3.2-7.6,3.2 V36.8z"></path> <g> <path class="st1" d="M228.8,57.3c0-3-1.1-5.5-3.2-7.6c-2.1-2.1-4.7-3.2-7.6-3.2v40.7c0,2.3,0.7,4.4,2,6.2l8.9-19.6V57.3z M202.9,72.2c0-4.3-1.5-7.9-4.4-10.9c-2.9-3-6.6-4.5-10.8-4.5h-15.2v15.5c0,4.3,1.5,7.9,4.4,11c2.9,3.1,6.6,4.6,10.8,4.6 s7.9-1.5,10.8-4.6C201.4,80.1,202.9,76.4,202.9,72.2z M172.4,44.4v2h15.3c7.2,0,13.3,2.5,18.5,7.5c5.1,5,7.7,11.1,7.7,18.2 c0,7.1-2.6,13.2-7.7,18.3c-5.2,5.1-11.3,7.6-18.4,7.6c-7.1,0-13.3-2.5-18.4-7.6c-5.1-5-7.7-11.1-7.7-18.3V33.6 c3,0,5.5,1.1,7.6,3.2C171.4,38.9,172.4,41.5,172.4,44.4z M131.3,56.7c-4.3,0-7.9,1.5-10.8,4.6c-2.9,3.1-4.4,6.7-4.4,11 c0,4.3,1.5,7.9,4.4,10.9c2.9,3,6.5,4.5,10.8,4.5c4.3,0,7.9-1.5,10.8-4.5c3-3,4.4-6.7,4.4-10.9c0-4.3-1.5-7.9-4.4-11 C139.2,58.2,135.6,56.7,131.3,56.7z M131.3,46.4c7.1,0,13.3,2.5,18.4,7.6c5.1,5,7.7,11.1,7.7,18.3c0,7.1-2.6,13.2-7.7,18.2 c-5.1,5-11.3,7.5-18.4,7.5c-7.1,0-13.3-2.5-18.4-7.5c-5.1-5-7.7-11.1-7.7-18.2c0-7.1,2.6-13.2,7.7-18.3 C118,49,124.2,46.4,131.3,46.4z M58.9,72.3V98c-3,0-5.5-1.1-7.6-3.2c-2.1-2.1-3.2-4.7-3.2-7.6V72.3c0-4.3-1.5-7.9-4.4-11 c-2.9-3.1-6.5-4.6-10.8-4.6c-4.3,0-7.9,1.5-10.8,4.6c-3,3.1-4.4,6.7-4.4,11v14.9c0,3-1.1,5.6-3.2,7.7C12.3,96.9,9.8,98,6.8,98 V72.3c0-7.1,2.6-13.2,7.7-18.3c5.1-5,11.3-7.6,18.4-7.6c4,0,7.9,0.9,11.5,2.7c3.6,1.8,6.7,4.3,9.2,7.4c2.4-3.1,5.5-5.6,9.2-7.4 c3.7-1.8,7.5-2.7,11.5-2.7c7.2,0,13.3,2.5,18.4,7.5c5.1,5,7.6,11.1,7.6,18.3V98c-3,0-5.5-1.1-7.6-3.2c-2.1-2.1-3.2-4.7-3.2-7.6 V72.3c0-4.3-1.5-7.9-4.4-11c-2.9-3.1-6.5-4.6-10.8-4.6c-4.3,0-7.9,1.5-10.8,4.6C60.4,64.4,58.9,68,58.9,72.3z"></path> <path class="st2" d="M273.1,15.2c0.1-1,0.1-2.3,0.1-3.8c0-1,0-1.8-0.1-2.5c0-0.7-0.1-1.3-0.2-1.7c-0.1-0.5-0.2-0.9-0.3-1.2 c-0.1-0.2-0.1-0.3-0.2-0.5c-0.1,0-0.2,0-0.4-0.1c-0.3,0-0.6,0-1,0h-62.4c0,0.1-0.1,0.1-0.1,0.2c-0.1,0.2-0.2,0.5-0.3,0.8 c-0.1,0.4-0.2,0.9-0.3,1.3v0c-0.1,0.5-0.1,1.1-0.2,1.6c0,0.6,0,1.3,0,2.1c0,1.5,0.1,2.8,0.2,3.9c0.1,0.9,0.3,1.7,0.5,2.2l0,0 c0,0.1,0.1,0.2,0.1,0.2h44h4.8l-2,4.3l-37.3,82.6l0,0.1l0,0c0.1,0,0.1,0,0.2,0c0.5,0.1,1.1,0.2,1.8,0.3c0.8,0.1,1.7,0.2,2.8,0.2 c0.9,0,2.2,0.1,3.8,0.1c1.4,0,2.4,0,2.9,0c0.8,0,1.5,0,2.3-0.1l0,0c0.6,0,1.2-0.1,1.7-0.2c0.5-0.1,0.9-0.1,1.2-0.2 c0.3-0.1,0.5-0.2,0.7-0.3c0.1-0.1,0.2-0.1,0.3-0.2l0,0c0.1,0,0.1-0.1,0.2-0.2l0,0c0.1-0.1,0.2-0.2,0.2-0.4l0,0l34.8-80.8h0 c0.1-0.3,0.3-0.7,0.6-1.4c0.2-0.5,0.3-0.9,0.5-1.3l0-0.1c0.1-0.3,0.2-0.7,0.3-1.1c0.1-0.4,0.2-0.9,0.3-1.2 c0.1-0.5,0.2-0.9,0.2-1.4C273,16.3,273,15.7,273.1,15.2"></path> </g> </g> </g> </svg> 